<svg width="160" height="49" viewBox="0 0 160 49" fill="none" xmlns="http://www.w3.org/2000/svg">
<path id="Logo" d="M84.3256 12.3113C84.3256 14.0771 82.8761 15.4995 81.0767 15.4995C79.2773 15.4995 77.8278 14.0771 77.8278 12.3113C77.8278 10.5455 79.2273 9.12312 81.0767 9.12312C82.9261 9.17217 84.3256 10.5946 84.3256 12.3113ZM70.9302 18.7367C70.9302 19.031 70.9302 19.5215 70.9302 19.5215C70.9302 19.5215 69.3807 17.5596 66.0818 17.5596C60.6336 17.5596 56.3851 21.6306 56.3851 27.2713C56.3851 32.8629 60.5837 36.983 66.0818 36.983C69.4307 36.983 70.9302 34.972 70.9302 34.972V35.8058C70.9302 36.1982 71.23 36.4925 71.6299 36.4925H75.6785V18.0501C75.6785 18.0501 71.9798 18.0501 71.6299 18.0501C71.23 18.0501 70.9302 18.3934 70.9302 18.7367ZM70.9302 30.5576C70.1804 31.6366 68.6809 32.5686 66.8815 32.5686C63.6826 32.5686 61.2334 30.6066 61.2334 27.2713C61.2334 23.9359 63.6826 21.974 66.8815 21.974C68.6309 21.974 70.2304 22.955 70.9302 23.985V30.5576ZM78.6775 18.0501H83.4759V36.4925H78.6775V18.0501ZM150.353 17.5596C147.054 17.5596 145.505 19.5215 145.505 19.5215V9.17217H140.707V36.4925C140.707 36.4925 144.405 36.4925 144.755 36.4925C145.155 36.4925 145.455 36.1492 145.455 35.8058V34.972C145.455 34.972 147.004 36.983 150.303 36.983C155.751 36.983 160 32.8629 160 27.2713C160 21.6797 155.751 17.5596 150.353 17.5596ZM149.554 32.5195C147.704 32.5195 146.255 31.5876 145.505 30.5085V23.9359C146.255 22.955 147.854 21.9249 149.554 21.9249C152.752 21.9249 155.202 23.8869 155.202 27.2222C155.202 30.5576 152.752 32.5195 149.554 32.5195ZM138.207 25.5546V36.5415H133.409V26.0941C133.409 23.0531 132.409 21.8268 129.71 21.8268C128.261 21.8268 126.761 22.5626 125.812 23.6416V36.4925H121.013V18.0501H124.812C125.212 18.0501 125.512 18.3934 125.512 18.7367V19.5215C126.911 18.0991 128.761 17.5596 130.61 17.5596C132.709 17.5596 134.459 18.1481 135.858 19.3253C137.558 20.6987 138.207 22.4645 138.207 25.5546ZM109.367 17.5596C106.068 17.5596 104.519 19.5215 104.519 19.5215V9.17217H99.7204V36.4925C99.7204 36.4925 103.419 36.4925 103.769 36.4925C104.169 36.4925 104.469 36.1492 104.469 35.8058V34.972C104.469 34.972 106.018 36.983 109.317 36.983C114.765 36.983 119.014 32.8629 119.014 27.2713C119.064 21.6797 114.815 17.5596 109.367 17.5596ZM108.567 32.5195C106.718 32.5195 105.269 31.5876 104.519 30.5085V23.9359C105.269 22.955 106.868 21.9249 108.567 21.9249C111.766 21.9249 114.215 23.8869 114.215 27.2222C114.215 30.5576 111.766 32.5195 108.567 32.5195ZM95.5718 17.5596C97.0213 17.5596 97.7711 17.8048 97.7711 17.8048V22.1702C97.7711 22.1702 93.7724 20.8458 91.2733 23.6416V36.5415H86.4749V18.0501C86.4749 18.0501 90.1736 18.0501 90.5235 18.0501C90.9234 18.0501 91.2233 18.3934 91.2233 18.7367V19.5215C92.123 18.4915 94.0723 17.5596 95.5718 17.5596ZM45.7387 34.8248C45.4888 34.2362 45.2388 33.5986 44.9889 33.0591C44.5891 32.1762 44.1892 31.3423 43.8393 30.5576L43.7893 30.5085C40.3405 23.1512 36.6418 15.6957 32.7431 8.33834L32.5931 8.04404C32.1933 7.30831 31.7934 6.52352 31.3935 5.73874C30.8937 4.85586 30.3939 3.92392 29.5941 3.04104C27.9947 1.07908 25.6955 0 23.2463 0C20.7471 0 18.4979 1.07908 16.8485 2.94294C16.0987 3.82583 15.5489 4.75776 15.0491 5.64064C14.6492 6.42543 14.2493 7.21021 13.8495 7.94595L13.6995 8.24024C9.85083 15.5976 6.1021 23.0531 2.65327 30.4104L2.60329 30.5085C2.2534 31.2933 1.85354 32.1271 1.45367 33.01C1.20376 33.5496 0.953844 34.1381 0.703928 34.7758C0.0541483 36.5906 -0.145784 38.3073 0.104131 40.0731C0.653945 43.7518 3.1531 46.8418 6.60193 48.2152C7.90149 48.7548 9.25103 49 10.6506 49C11.0504 49 11.5503 48.951 11.9501 48.9019C13.5996 48.7057 15.299 48.1662 16.9484 47.2342C18.9977 46.1061 20.9471 44.4875 23.1463 42.1331C25.3456 44.4875 27.3449 46.1061 29.3442 47.2342C30.9937 48.1662 32.6931 48.7057 34.3425 48.9019C34.7424 48.951 35.2422 49 35.6421 49C37.0416 49 38.4412 48.7548 39.6907 48.2152C43.1895 46.8418 45.6387 43.7027 46.1885 40.0731C46.5884 38.3564 46.3885 36.6396 45.7387 34.8248ZM23.1963 37.3754C20.4972 34.04 18.7478 30.9009 18.148 28.2523C17.8981 27.1241 17.8481 26.1431 17.9981 25.2603C18.098 24.4755 18.3979 23.7888 18.7978 23.2002C19.7475 21.8759 21.3469 21.042 23.1963 21.042C25.0457 21.042 26.6951 21.8268 27.5948 23.2002C27.9947 23.7888 28.2946 24.4755 28.3946 25.2603C28.5445 26.1431 28.4945 27.1732 28.2446 28.2523C27.6448 30.8519 25.8954 33.991 23.1963 37.3754ZM43.1396 39.6807C42.7897 42.2312 41.0403 44.4384 38.5911 45.4194C37.3915 45.9099 36.0919 46.0571 34.7924 45.9099C33.5428 45.7628 32.2932 45.3704 30.9937 44.6346C29.1943 43.6537 27.3949 42.1331 25.2956 39.8769C28.5945 35.9039 30.5938 32.2743 31.3436 29.037C31.6934 27.5165 31.7434 26.1431 31.5935 24.8679C31.3935 23.6416 30.9437 22.5135 30.2439 21.5325C28.6945 19.3253 26.0953 18.0501 23.1963 18.0501C20.2973 18.0501 17.6982 19.3744 16.1487 21.5325C15.4489 22.5135 14.9991 23.6416 14.7992 24.8679C14.5992 26.1431 14.6492 27.5656 15.0491 29.037C15.7988 32.2743 17.8481 35.953 21.097 39.9259C19.0477 42.1822 17.1983 43.7027 15.399 44.6837C14.0994 45.4194 12.8498 45.8118 11.6002 45.959C10.2507 46.1061 8.95114 45.9099 7.80153 45.4685C5.35235 44.4875 3.60295 42.2803 3.25307 39.7297C3.10312 38.5035 3.20308 37.2773 3.70291 35.9039C3.85286 35.4134 4.10278 34.9229 4.35269 34.3343C4.70257 33.5495 5.10244 32.7157 5.5023 31.8819L5.55229 31.7838C9.00112 24.4755 12.6999 17.02 16.5486 9.76076L16.6985 9.46647C17.0984 8.73073 17.4982 7.94595 17.8981 7.21021C18.298 6.42543 18.7478 5.68969 19.2976 5.05205C20.3473 3.87488 21.7468 3.23724 23.2963 3.23724C24.8458 3.23724 26.2453 3.87488 27.2949 5.05205C27.8447 5.68969 28.2946 6.42543 28.6945 7.21021C29.0943 7.94595 29.4942 8.73073 29.894 9.46647L30.044 9.76076C33.8427 17.0691 37.5415 24.5245 40.9903 31.8328V31.8819C41.3902 32.6667 41.74 33.5495 42.1399 34.3343C42.3898 34.9229 42.6397 35.4134 42.7897 35.9039C43.1895 37.1792 43.3395 38.4054 43.1396 39.6807Z" fill="#1A1A1A"/>
</svg>
