<svg width="20" height="20" viewBox="0 0 20 20" fill="none" xmlns="http://www.w3.org/2000/svg">
<g id="book">
<path id="Union" fill-rule="evenodd" clip-rule="evenodd" d="M18.125 2.5H11.25L10.8125 2.68753L10 3.48755L9.18747 2.68753L8.75 2.5H1.875L1.25 3.125V15.625L1.875 16.25H8.48747L9.56253 17.3125H10.4375L11.5125 16.25H18.125L18.75 15.625V3.125L18.125 2.5ZM9.375 15.3999L9.15001 15.1875L8.75 15H2.5V3.75H8.48747L9.41254 4.67499L9.375 15.3999ZM17.5 15H11.25L10.8125 15.1875L10.6375 15.35V4.62494L11.5125 3.75H17.5V15ZM7.50026 6.25H3.75025V7.5H7.50026V6.25ZM7.50026 11.25H3.75025V12.5H7.50026V11.25ZM3.75025 8.74999H7.50026V9.99999H3.75025V8.74999ZM16.2501 6.25H12.5001V7.5H16.2501V6.25ZM12.5001 8.74999H16.2501V9.99999H12.5001V8.74999ZM12.5001 11.25H16.2501V12.5H12.5001V11.25Z" fill="#D93448"/>
</g>
</svg>
