<svg width="20" height="20" viewBox="0 0 20 20" fill="none" xmlns="http://www.w3.org/2000/svg">
<g id="call-incoming">
<path id="Union" fill-rule="evenodd" clip-rule="evenodd" d="M18.7518 2.12891L12.951 7.93945L17.0623 7.93945V9.18945L10.8123 9.18945L10.8123 2.93945L12.0623 2.93945V7.05078L17.8729 1.25L18.7518 2.12891ZM15.6836 11.6602C15.4427 11.5625 15.1953 11.5137 14.9414 11.5137C14.668 11.5072 14.4368 11.5495 14.248 11.6406C14.0592 11.7318 13.8802 11.8392 13.7109 11.9629C13.5417 12.0866 13.3919 12.2233 13.2617 12.3731C13.1315 12.5228 13.0046 12.6595 12.8809 12.7832C12.7572 12.9069 12.6367 13.0111 12.5195 13.0957C12.4023 13.1804 12.2754 13.2227 12.1387 13.2227C11.9499 13.2227 11.7871 13.1543 11.6504 13.0176C11.5527 12.9265 11.416 12.7962 11.2402 12.627C11.0645 12.4577 10.8496 12.2526 10.5957 12.0117C10.3418 11.7709 10.0781 11.5169 9.80469 11.25C9.53125 10.9831 9.24805 10.7064 8.95508 10.4199C8.66211 10.1335 8.38867 9.85679 8.13477 9.58986C7.88086 9.32294 7.64974 9.07229 7.44141 8.83791C7.23307 8.60354 7.07031 8.40171 6.95312 8.23244C6.83594 8.06317 6.77734 7.93947 6.77734 7.86135C6.77083 7.71812 6.81315 7.58791 6.9043 7.47072C6.99544 7.35354 7.10286 7.23309 7.22656 7.1094C7.35026 6.9857 7.48698 6.85549 7.63672 6.71877C7.78646 6.58205 7.92318 6.43557 8.04687 6.27932C8.17057 6.12307 8.27474 5.94403 8.35937 5.74221C8.44401 5.54039 8.48633 5.31252 8.48633 5.05861C8.48633 4.80471 8.4375 4.55731 8.33984 4.31643C8.24219 4.07554 8.10221 3.86395 7.91992 3.68166C7.71159 3.47984 7.49023 3.23895 7.25586 2.95901C7.02148 2.67906 6.76432 2.41213 6.48437 2.15822C6.20443 1.90432 5.91471 1.68947 5.61523 1.51369C5.31575 1.33791 5.00325 1.25002 4.67773 1.25002C4.42383 1.25002 4.17643 1.29885 3.93555 1.39651C3.69466 1.49416 3.48307 1.63414 3.30078 1.81643C2.96224 2.15497 2.66602 2.4577 2.41211 2.72463C2.1582 2.99156 1.94336 3.26825 1.76758 3.55471C1.5918 3.84117 1.46159 4.16018 1.37695 4.51174C1.29232 4.8633 1.25 5.28648 1.25 5.78127C1.25 6.47137 1.36068 7.18752 1.58203 7.92971C1.80339 8.6719 2.10286 9.41083 2.48047 10.1465C2.85807 10.8822 3.31706 11.6048 3.85742 12.3145C4.39779 13.0241 4.98372 13.6979 5.61523 14.336C6.24674 14.974 6.91732 15.5632 7.62695 16.1035C8.33659 16.6439 9.0625 17.1094 9.80469 17.5C10.5469 17.8906 11.2923 18.1966 12.041 18.418C12.7897 18.6393 13.5189 18.75 14.2285 18.75C14.7103 18.7435 15.1302 18.6979 15.4883 18.6133C15.8464 18.5287 16.1686 18.3985 16.4551 18.2227C16.7415 18.0469 17.0182 17.8321 17.2852 17.5781C17.5521 17.3242 17.8516 17.0313 18.1836 16.6992C18.3659 16.5169 18.5059 16.3054 18.6035 16.0645C18.7012 15.8236 18.75 15.5762 18.75 15.3223C18.737 15.1074 18.6947 14.8926 18.623 14.6778C18.5514 14.4629 18.444 14.2611 18.3008 14.0723C18.1575 13.8835 18.0046 13.6979 17.8418 13.5156C17.679 13.3334 17.5033 13.1576 17.3145 12.9883C17.1256 12.819 16.9466 12.6595 16.7773 12.5098C16.6081 12.36 16.4551 12.2168 16.3184 12.0801C16.1361 11.8978 15.9245 11.7578 15.6836 11.6602ZM15.2246 17.3926C14.9577 17.4642 14.6257 17.5 14.2285 17.5C13.623 17.4935 12.9915 17.3926 12.334 17.1973C11.6764 17.002 11.0156 16.7253 10.3516 16.3672C9.6875 16.0091 9.02995 15.586 8.37891 15.0977C7.72786 14.6094 7.11589 14.0755 6.54297 13.4961C5.97005 12.9167 5.43294 12.308 4.93164 11.6699C4.43034 11.0319 4.00065 10.3744 3.64258 9.69729C3.2845 9.0202 3.00456 8.34963 2.80273 7.68557C2.60091 7.02151 2.5 6.37697 2.5 5.75197C2.50651 5.36786 2.54557 5.03908 2.61719 4.76565C2.6888 4.49221 2.79622 4.24807 2.93945 4.03322C3.08268 3.81838 3.25846 3.61005 3.4668 3.40822C3.67513 3.2064 3.91276 2.97203 4.17969 2.7051C4.31641 2.56838 4.48242 2.50002 4.67773 2.50002C4.75586 2.49351 4.8763 2.54559 5.03906 2.65627C5.20182 2.76695 5.3776 2.90041 5.56641 3.05666C5.75521 3.21291 5.95052 3.39195 6.15234 3.59377C6.35417 3.79559 6.5332 3.99091 6.68945 4.17971C6.8457 4.36851 6.97591 4.54104 7.08008 4.69729C7.18424 4.85354 7.23633 4.97398 7.23633 5.05861C7.24284 5.21486 7.20052 5.34507 7.10937 5.44924C7.01823 5.55341 6.91081 5.67385 6.78711 5.81057C6.66341 5.94729 6.52669 6.07749 6.37695 6.20119C6.22721 6.32489 6.09049 6.47137 5.9668 6.64065C5.8431 6.80992 5.73893 6.99221 5.6543 7.18752C5.56966 7.38283 5.52734 7.60744 5.52734 7.86135C5.53385 8.12828 5.58594 8.37893 5.68359 8.6133C5.78125 8.84768 5.92122 9.05601 6.10352 9.2383L10.7617 13.8965C10.9505 14.0853 11.1621 14.2285 11.3965 14.3262C11.6309 14.4238 11.8783 14.4727 12.1387 14.4727C12.3991 14.4792 12.627 14.4369 12.8223 14.3457C13.0176 14.2546 13.1966 14.1472 13.3594 14.0235C13.5221 13.8998 13.6719 13.763 13.8086 13.6133C13.9453 13.4636 14.0723 13.3268 14.1895 13.2031C14.3066 13.0794 14.4271 12.9753 14.5508 12.8906C14.6745 12.806 14.8047 12.7637 14.9414 12.7637C15.0326 12.7637 15.1562 12.8158 15.3125 12.9199C15.4687 13.0241 15.6413 13.1576 15.8301 13.3203C16.0189 13.4831 16.2142 13.6621 16.416 13.8574C16.6178 14.0528 16.7969 14.2481 16.9531 14.4434C17.1094 14.6387 17.2396 14.8145 17.3437 14.9707C17.4479 15.127 17.5 15.2474 17.5 15.3321C17.5 15.5209 17.4316 15.6836 17.2949 15.8203C17.015 16.0938 16.7773 16.3314 16.582 16.5332C16.3867 16.735 16.1784 16.9108 15.957 17.0606C15.7357 17.2103 15.4915 17.321 15.2246 17.3926Z" fill="#F3F3F3"/>
</g>
</svg>
