<svg width="68" height="68" viewBox="0 0 68 68" fill="none" xmlns="http://www.w3.org/2000/svg">
<g id="click 1" clip-path="url(#clip0_1669_0)">
<g id="x3C Group x3E  4">
<g id="Group">
<path id="Vector" d="M56.1479 67.4165L44.5244 55.795L38.8902 61.4291C38.4038 61.9155 37.6977 62.1159 37.0244 61.9602C36.3514 61.8007 35.8104 61.3065 35.5926 60.651L24.3224 26.8421C24.0831 26.1261 24.2698 25.3363 24.8029 24.8032C25.334 24.272 26.1259 24.0775 26.8418 24.3226L60.6507 35.5928C61.3064 35.8108 61.8005 36.3516 61.96 37.0247C62.1176 37.6959 61.9172 38.4021 61.4289 38.8905L55.7947 44.5246L67.4162 56.148C68.1943 56.9261 68.1943 58.1869 67.4162 58.9651L58.9649 67.4163C58.1867 68.1947 56.926 68.1947 56.1479 67.4165Z" fill="#1A1A1A"/>
</g>
<g id="Group_2">
<path id="Vector_2" d="M25.8984 15.9375C24.7973 15.9375 23.9062 15.0465 23.9062 13.9453V1.99219C23.9062 0.891039 24.7973 0 25.8984 0C26.9996 0 27.8906 0.891039 27.8906 1.99219V13.9453C27.8906 15.0465 26.9996 15.9375 25.8984 15.9375Z" fill="#1A1A1A"/>
</g>
<g id="Group_3">
<path id="Vector_3" d="M16.0388 18.8559L7.58556 10.4027C6.80742 9.6245 6.80742 8.36371 7.58556 7.58556C8.36371 6.80742 9.6245 6.80742 10.4027 7.58556L18.8558 16.0387C19.6339 16.8168 19.6339 18.0776 18.8558 18.8558C18.0776 19.6341 16.817 19.6341 16.0388 18.8559Z" fill="#1A1A1A"/>
</g>
<g id="Group_4">
<path id="Vector_4" d="M7.58556 44.2112C6.80742 43.4331 6.80742 42.1723 7.58556 41.3941L16.0387 32.941C16.8168 32.1629 18.0776 32.1629 18.8558 32.941C19.6339 33.7192 19.6339 34.98 18.8558 35.7581L10.4027 44.2112C9.6245 44.9894 8.36385 44.9894 7.58556 44.2112Z" fill="#1A1A1A"/>
</g>
<g id="Group_5">
<path id="Vector_5" d="M32.941 18.8558C32.1629 18.0776 32.1629 16.8168 32.941 16.0387L41.3942 7.58556C42.1723 6.80742 43.4331 6.80742 44.2112 7.58556C44.9894 8.36371 44.9894 9.6245 44.2112 10.4026L35.7581 18.8558C34.98 19.6339 33.7193 19.6339 32.941 18.8558Z" fill="#1A1A1A"/>
</g>
<g id="Group_6">
<path id="Vector_6" d="M13.9453 27.8906H1.99219C0.891039 27.8906 0 26.9996 0 25.8984C0 24.7973 0.891039 23.9062 1.99219 23.9062H13.9453C15.0465 23.9062 15.9375 24.7973 15.9375 25.8984C15.9375 26.9996 15.0465 27.8906 13.9453 27.8906Z" fill="#1A1A1A"/>
</g>
</g>
</g>
<defs>
<clipPath id="clip0_1669_0">
<rect width="68" height="68" fill="white"/>
</clipPath>
</defs>
</svg>
