<svg width="80" height="80" viewBox="0 0 80 80" fill="none" xmlns="http://www.w3.org/2000/svg">
<g id="&#227;&#131;&#172;&#227;&#130;&#164;&#227;&#131;&#164;&#227;&#131;&#188; 2">
<g id="&#231;&#183;&#168;&#233;&#155;&#134;&#227;&#131;&#162;&#227;&#131;&#188;&#227;&#131;&#137;">
<path id="Vector" d="M60.4146 40.2156C60.4146 40.5872 60.4146 40.9611 60.4146 41.3374C60.4146 42.0429 60.3982 42.7484 60.3652 43.454C64.7485 44.9198 68.9172 46.9626 72.7614 49.5286L73.8973 47.8847L75.0402 46.2338C70.5198 43.2026 65.5839 40.8428 60.3864 39.2278C60.4005 39.5524 60.4146 39.891 60.4146 40.2156Z" fill="#D93448"/>
<path id="Vector_2" d="M19.3178 41.4354C19.3178 41.0309 19.3178 40.6264 19.3178 40.2219C19.3178 39.9115 19.3178 39.6081 19.3178 39.3118C14.2354 40.922 9.40815 43.2477 4.98145 46.2189L6.1244 47.8698L7.26031 49.5137C11.0206 47.0023 15.0931 44.9933 19.3742 43.5379C19.346 42.8418 19.3272 42.1409 19.3178 41.4354Z" fill="#D93448"/>
<path id="Vector_3" d="M39.9967 22.972C44.1193 22.972 47.4612 19.63 47.4612 15.5075C47.4612 11.3849 44.1193 8.04297 39.9967 8.04297C35.8742 8.04297 32.5322 11.3849 32.5322 15.5075C32.5322 19.63 35.8742 22.972 39.9967 22.972Z" fill="#D93448"/>
<path id="Vector_4" d="M39.8559 25.9771C29.3506 25.9771 23.3606 31.5578 22.4434 38.3803C22.3583 38.9881 22.3135 39.6009 22.3094 40.2147C22.3094 40.3135 22.3094 40.3981 22.3094 40.4969C22.3094 41.2212 22.3094 41.9268 22.3094 42.6135C22.3386 45.569 22.6648 48.5141 23.283 51.4044C23.283 51.5455 23.3536 51.6795 23.3818 51.8136C22.4254 51.9847 21.5142 52.3495 20.704 52.8857C19.8938 53.4219 19.2018 54.1181 18.6705 54.9315C18.1392 55.7449 17.7799 56.6584 17.6146 57.6157C17.4493 58.5731 17.4816 59.5542 17.7093 60.4987H62.0095C62.235 59.5528 62.2649 58.5708 62.0974 57.613C61.9299 56.6552 61.5685 55.7417 61.0354 54.9285C60.5023 54.1153 59.8087 53.4195 58.9972 52.8839C58.1856 52.3483 57.2732 51.9841 56.3159 51.8136C56.3159 51.6795 56.3865 51.5455 56.4147 51.4044C57.0353 48.4836 57.3592 45.5076 57.3813 42.5218C57.3813 41.8162 57.3813 41.146 57.3813 40.4052C57.3813 40.3346 57.3813 40.2711 57.3813 40.2076C57.3767 39.5629 57.3271 38.9193 57.2331 38.2815C56.2877 31.4943 50.3048 25.9559 39.8347 25.9559V26.2593" fill="#D93448"/>
<path id="Vector_5" d="M62.5172 63.4974H17.5186V70.454H62.5172V63.4974Z" fill="#D93448"/>
</g>
</g>
</svg>
