<svg width="80" height="80" viewBox="0 0 80 80" fill="none" xmlns="http://www.w3.org/2000/svg">
<g id="&#227;&#131;&#172;&#227;&#130;&#164;&#227;&#131;&#164;&#227;&#131;&#188; 2">
<g id="&#231;&#183;&#168;&#233;&#155;&#134;&#227;&#131;&#162;&#227;&#131;&#188;&#227;&#131;&#137;">
<path id="Vector" d="M74.3977 73.0576L72.3234 70.2355L72.2035 70.0732L72.0412 70.1932C70.4472 71.2943 68.5454 71.8623 66.6087 71.8159C64.6353 71.8509 62.7008 71.2661 61.0773 70.1438C58.7805 68.5767 56.0668 67.7338 53.2863 67.7237C50.5059 67.7137 47.7861 68.5369 45.478 70.0873C43.884 71.1884 41.9823 71.7565 40.0455 71.7101C38.0722 71.7451 36.1376 71.1603 34.5141 70.038C32.2199 68.4258 29.4721 67.5857 26.6686 67.6392C23.8967 67.5856 21.1793 68.4131 18.9078 70.0027C17.3138 71.1038 15.412 71.6718 13.4752 71.6254C11.502 71.6599 9.56753 71.0752 7.94386 69.9533L7.80276 69.8475L7.68282 70.0097L5.56623 72.8319L5.44629 72.9941L5.60856 73.1141C7.9173 74.7269 10.6809 75.5599 13.4964 75.4917C16.2683 75.5453 18.9857 74.7177 21.2572 73.1282C22.8512 72.0271 24.753 71.459 26.6898 71.5055C28.663 71.4709 30.5975 72.0557 32.2211 73.1776C34.5148 74.7986 37.2654 75.6463 40.0737 75.5975C42.8456 75.6511 45.563 74.8236 47.8345 73.234C49.4285 72.1329 51.3303 71.5649 53.2671 71.6113C55.2403 71.5768 57.1748 72.1615 58.7984 73.2834C61.0956 74.8495 63.8092 75.6919 66.5894 75.702C69.3697 75.712 72.0892 74.8893 74.3977 73.3398L74.56 73.2199L74.3977 73.0576Z" fill="#D93448"/>
<path id="Vector_2" d="M40.0242 19.0771C44.1662 19.0771 47.524 15.7193 47.524 11.5773C47.524 7.43528 44.1662 4.07751 40.0242 4.07751C35.8822 4.07751 32.5244 7.43528 32.5244 11.5773C32.5244 15.7193 35.8822 19.0771 40.0242 19.0771Z" fill="#D93448"/>
<path id="Vector_3" d="M5.99707 64.0339H73.996V59.8854L65.9953 46.0358H57.0633C57.8537 42.9948 57.9863 39.8201 57.4522 36.7237C56.9181 33.6274 55.7296 30.6806 53.966 28.0801C51.4755 24.5525 45.9512 22.0055 40.0248 22.0055C34.0983 22.0055 28.574 24.5172 26.1047 28.0801C24.3411 30.6806 23.1526 33.6274 22.6185 36.7237C22.0844 39.8201 22.2169 42.9948 23.0074 46.0358H13.9978L5.99707 59.8854V64.0339ZM64.8382 50.0009L69.4595 58.0016H58.559L54.8338 50.008L64.8382 50.0009ZM30.8388 34.7191V43.9968H49.2178V34.7191C50.5179 36.2574 51.4245 38.0886 51.8596 40.0552C52.2947 42.0217 52.2452 44.0645 51.7154 46.0076H28.3341C27.8052 44.0639 27.7569 42.0208 28.1932 40.0542C28.6295 38.0877 29.5375 36.2567 30.8388 34.7191ZM28.6164 50.0221H51.3767L55.0737 58.0157H24.9264L28.6164 50.0221ZM15.1548 50.0221H25.1451L21.4552 57.9946H10.583L15.1548 50.0221Z" fill="#D93448"/>
</g>
</g>
</svg>
