<svg width="80" height="80" viewBox="0 0 80 80" fill="none" xmlns="http://www.w3.org/2000/svg">
<g id="&#227;&#131;&#172;&#227;&#130;&#164;&#227;&#131;&#164;&#227;&#131;&#188; 2">
<g id="&#231;&#183;&#168;&#233;&#155;&#134;&#227;&#131;&#162;&#227;&#131;&#188;&#227;&#131;&#137;">
<path id="Vector" d="M39.9963 59.0383C43.9332 58.3539 59.9699 50.706 59.9699 39.1847C59.9699 31.311 53.0133 24.4955 39.9752 24.4955C26.937 24.4955 19.9805 31.311 19.9805 39.1847C20.0016 50.706 36.0665 58.3539 39.9963 59.0383ZM30.0836 45.1535C30.0836 45.1535 28.087 42.797 27.8824 40.2147C27.699 37.9359 28.468 35.8122 30.0836 34.8033V45.1535ZM52.1173 40.2147C51.9127 42.8111 49.9161 45.1535 49.9161 45.1535V34.8174C51.5035 35.8264 52.3008 37.95 52.1173 40.2147Z" fill="#D93448"/>
<path id="Vector_2" d="M47.4957 13.9972C47.4957 15.4805 47.0558 16.9305 46.2317 18.1638C45.4076 19.3971 44.2363 20.3584 42.8659 20.926C41.4955 21.4937 39.9876 21.6422 38.5327 21.3528C37.0779 21.0634 35.7416 20.3492 34.6927 19.3003C33.6439 18.2514 32.9296 16.9151 32.6402 15.4603C32.3508 14.0055 32.4993 12.4975 33.067 11.1271C33.6346 9.75671 34.5959 8.5854 35.8292 7.76132C37.0626 6.93723 38.5126 6.49738 39.9959 6.49738C41.9849 6.49738 43.8925 7.28753 45.299 8.69401C46.7055 10.1005 47.4957 12.0081 47.4957 13.9972Z" fill="#D93448"/>
<path id="Vector_3" d="M49.0198 71.9637C52.4974 72.0118 55.9517 71.389 59.1935 70.1294C60.5909 69.6081 61.7978 68.676 62.6554 67.4557C63.513 66.2355 63.9811 64.7842 63.9982 63.2928C63.9519 61.2992 63.1172 59.4052 61.677 58.0259C60.2369 56.6466 58.3087 55.8944 56.3149 55.9341C54.6885 55.9218 53.0984 56.4149 51.7643 57.3452C47.4605 59.9062 43.8764 61.8182 40.0031 62.8836C35.8123 61.6727 31.8367 59.8134 28.2207 57.3734C26.8866 56.4431 25.2965 55.9501 23.6701 55.9623C21.6799 55.9263 19.7564 56.6793 18.3195 58.0567C16.8826 59.4341 16.0491 61.3241 16.001 63.314C16.0166 64.8065 16.4841 66.2594 17.3417 67.481C18.1994 68.7027 19.4071 69.6359 20.8056 70.1576C24.2928 71.4961 28.016 72.1107 31.7484 71.9637H49.0198Z" fill="#D93448"/>
</g>
</g>
</svg>
