<svg width="80" height="80" viewBox="0 0 80 80" fill="none" xmlns="http://www.w3.org/2000/svg">
<g id="&#227;&#131;&#172;&#227;&#130;&#164;&#227;&#131;&#164;&#227;&#131;&#188; 2">
<g id="&#231;&#183;&#168;&#233;&#155;&#134;&#227;&#131;&#162;&#227;&#131;&#188;&#227;&#131;&#137;">
<path id="Vector" d="M39.9832 19.0771C44.1252 19.0771 47.483 15.7193 47.483 11.5773C47.483 7.43528 44.1252 4.07751 39.9832 4.07751C35.8412 4.07751 32.4834 7.43528 32.4834 11.5773C32.4834 15.7193 35.8412 19.0771 39.9832 19.0771Z" fill="#D93448"/>
<path id="Vector_2" d="M18.0126 50.0001H24.0872L21.4344 55.9971H11.9944V59.9692H19.6776L16.15 67.9699H6.01855V71.9632H74.0105V67.9981H63.8861L60.3443 59.9692H68.0135V55.9971H58.5594L55.9066 50.0001H62.0164V45.9997H56.4992C56.605 45.5905 56.7038 45.1813 56.7885 44.7792C56.9867 43.8476 57.1304 42.9053 57.2188 41.957C57.7389 37.1141 56.5727 32.24 53.917 28.1569C51.4264 24.6292 45.9021 22.0823 39.9757 22.0823C34.0492 22.0823 28.525 24.601 26.0344 28.1569C23.8685 31.2542 21.2862 37.7662 23.4592 45.9997H18.0126V50.0001ZM30.7968 34.7959V43.9678H49.1829V34.7959C50.3429 36.39 51.1211 38.2293 51.4575 40.1719C51.7939 42.1145 51.6795 44.1084 51.1231 45.9997H28.8495C28.2941 44.1079 28.1808 42.1137 28.5184 40.1711C28.8561 38.2285 29.6356 36.3894 30.7968 34.7959ZM31.0437 67.9981H19.4236L22.9513 59.9974H32.1232L31.0437 67.9981ZM34.0704 67.9981L35.1428 59.9692H44.4488L45.8175 67.9699L34.0704 67.9981ZM48.8865 67.9981L47.4825 59.9692H57.0636L60.5913 67.9699L48.8865 67.9981Z" fill="#D93448"/>
</g>
</g>
</svg>
