<svg width="68" height="75" viewBox="0 0 68 75" fill="none" xmlns="http://www.w3.org/2000/svg">
<g id="Logo">
<path id="Vector" fill-rule="evenodd" clip-rule="evenodd" d="M21.9504 25.7639L68.0002 29.7856L64.0268 75.0001L17.9771 70.9945L21.9504 25.7639Z" fill="#1A1A1A"/>
<path id="Vector_2" fill-rule="evenodd" clip-rule="evenodd" d="M0 0H46.2433V45.4234H0V0Z" fill="#1A1A1A"/>
<path id="Vector_3" fill-rule="evenodd" clip-rule="evenodd" d="M13.0996 8.29973C12.3083 8.3318 12.1305 8.3318 11.2099 8.3318L11.1133 8.44405C11.1457 9.06902 11.2099 10.0784 11.2099 11.3601L11.1938 12.6256C10.8062 12.7379 10.3055 12.9143 9.44913 12.9143C6.7358 12.9143 5.28215 11.1195 5.28215 8.34784C5.28215 7.57895 5.36298 6.12054 6.20276 4.99928C7.25268 3.57335 8.7225 3.5092 9.33597 3.5092C10.9189 3.5092 11.9204 4.16625 12.4534 4.51902L12.5823 4.48695C12.647 3.71766 12.6793 3.44546 12.7598 2.8686L12.6789 2.74072C12.2105 2.51622 11.0636 2.01953 9.23858 2.01953C8.33413 2.01953 6.3636 2.09971 4.82912 3.79824C3.89235 4.83973 3.22998 6.39394 3.22998 8.34864C3.22998 10.2713 3.89235 11.7293 4.71596 12.6264C5.97564 13.9722 7.80109 14.3731 9.44832 14.3731C10.7246 14.3731 11.8553 14.1486 13.0342 13.684L13.1473 13.5717C13.1312 13.059 13.115 12.7543 13.0988 12.0656C13.115 11.0562 13.1312 9.72647 13.1958 8.39675L13.0996 8.29973ZM28.3955 2.22719C27.2324 2.25926 27.0874 2.27529 25.8434 2.27529L25.7465 2.38714C25.504 3.31638 25.4559 3.39696 24.7774 5.57575L22.629 12.5775L20.7878 5.80024C20.4487 4.6469 20.1739 3.68559 19.8672 2.33943L19.7379 2.22719C18.6722 2.25926 18.3812 2.27529 17.1373 2.27529L17.0403 2.38714C17.0403 3.86118 17.0241 4.0536 16.8467 7.03375C16.7336 9.03655 16.6689 11.0233 16.4915 13.0261C16.4592 13.3625 16.4268 13.7148 16.3945 14.0516L16.4753 14.1634C17.1862 14.1153 17.2993 14.1153 18.1068 14.1153L18.1876 14.0031C18.2038 12.6894 18.2038 12.2568 18.2684 10.2701L18.3816 7.27388C18.4463 5.59138 18.4624 5.22297 18.4786 3.54087C18.7211 4.61443 18.7857 4.88663 19.4477 7.29031L20.1258 9.64549C20.3036 10.1903 21.0464 12.6898 21.1758 13.2185C21.2727 13.4751 21.3532 13.7633 21.4344 14.052L21.531 14.1638C22.5001 14.1157 22.5809 14.1157 23.5015 14.1157L23.5985 14.0035C23.9861 12.7058 24.1962 12.0488 24.8097 10.1903L25.6014 7.75494C26.3118 5.39976 26.5705 4.51862 26.8287 3.54087C26.8287 4.18188 26.8449 6.74552 26.8449 7.94696L26.8772 9.72526C26.9419 11.5677 26.958 12.145 26.9257 14.0516L27.0389 14.1634C27.911 14.1313 28.0241 14.1153 28.8643 14.1153L28.9451 14.0031C28.7352 10.1177 28.5899 6.22916 28.5091 2.33903L28.3955 2.22719ZM34.2914 14.1478C36.5363 14.1478 36.7949 14.1478 37.4573 14.0836C39.185 13.9077 41.4142 13.3468 42.4641 10.6228C42.8035 9.75774 42.9163 8.82849 42.9163 7.89925C42.9163 7.17847 42.9163 4.47052 40.7037 3.06062C39.2977 2.16345 37.5535 2.17948 35.5834 2.22759L33.096 2.27529L32.9828 2.38754C33.0798 3.63749 33.1444 5.01531 33.1444 9.70963C33.1444 11.4242 33.1283 12.6898 33.0798 14.052L33.1606 14.1638L34.2914 14.1478Z" fill="#F8F9FC"/>
<path id="Vector_4" fill-rule="evenodd" clip-rule="evenodd" d="M35.0339 12.7381C35.0016 11.216 34.9858 10.8475 34.9858 7.77119C34.9858 5.25566 35.0016 4.64672 35.0339 3.60523C35.6155 3.57316 36.0839 3.55713 36.6812 3.55713C37.3435 3.55713 38.7168 3.55713 39.702 4.40619C40.9459 5.46372 40.9459 7.20996 40.9459 7.75515C40.9459 8.6844 40.8166 9.50139 40.526 10.2382C39.5076 12.8022 37.3116 12.7698 35.0339 12.7381Z" fill="#1A1A1A"/>
<path id="Vector_5" fill-rule="evenodd" clip-rule="evenodd" d="M26.4568 65.2904C26.4891 64.9537 26.4891 64.906 26.5376 64.3932L26.4729 64.3135C25.3422 64.3455 24.9546 64.3612 23.6622 64.3776V64.1206C23.6784 63.4479 23.6946 62.3259 23.7107 61.8617C25.0835 61.8617 25.4711 61.8773 26.8605 61.9094L26.9413 61.846C26.9575 61.3974 26.9575 61.3489 27.006 60.9489L26.9413 60.8683C26.1662 60.8847 23.1781 60.9004 22.3864 60.9004L22.3379 60.9801C22.3702 61.6536 22.4025 62.3584 22.4025 63.9611C22.4025 67.2611 22.3864 67.9182 22.3379 68.7676L22.3864 68.8474C23.0003 68.8153 23.0807 68.8153 23.7107 68.8153L23.7592 68.7356C23.6784 67.5173 23.6784 65.7875 23.6946 65.3225C25.035 65.3225 25.2614 65.3225 26.3759 65.3545L26.4568 65.2904ZM32.6109 68.9761C34.84 68.9761 36.2933 67.5658 36.2933 64.8907C36.2933 62.2786 34.8881 60.7244 32.6432 60.7244C30.3013 60.7244 28.9446 62.3904 28.9446 64.9064C28.9442 67.4054 30.2689 68.9761 32.6109 68.9761Z" fill="#F8F9FC"/>
<path id="Vector_6" fill-rule="evenodd" clip-rule="evenodd" d="M32.6274 68.0463C31.8034 68.0299 31.1733 67.6298 30.7696 66.9884C30.3982 66.3157 30.3174 65.37 30.3174 64.8417C30.3174 64.3289 30.3982 63.2718 30.8181 62.6148C31.0606 62.2303 31.6094 61.6535 32.6431 61.6691C32.918 61.6535 33.8709 61.6691 34.4686 62.6304C34.8885 63.3195 34.9532 64.4095 34.9532 64.8417C34.9532 66.5398 34.2912 68.0463 32.6274 68.0463Z" fill="#1A1A1A"/>
<path id="Vector_7" fill-rule="evenodd" clip-rule="evenodd" d="M44.6599 60.8683C44.0622 60.8847 44.0141 60.9003 43.3679 60.9003L43.2709 60.9645C42.7706 61.6857 40.8005 64.1206 40.7358 64.2012C40.6546 64.2966 40.5584 64.4096 40.461 64.5215C40.461 62.9993 40.461 62.6626 40.5257 60.9488L40.461 60.8683C39.9118 60.8847 39.8144 60.8847 39.2013 60.9003L39.1367 60.9801C39.2013 61.8616 39.2337 62.5187 39.2171 64.2012C39.2337 67.2932 39.2337 67.5333 39.169 68.7676L39.2337 68.8474C39.8314 68.8153 39.8471 68.8153 40.4933 68.8153L40.558 68.7355C40.4768 67.3573 40.461 65.2583 40.461 64.6979C40.7682 65.0667 42.8999 67.8704 43.5134 68.7833L43.6104 68.8474C44.354 68.8153 44.4178 68.8153 45.0802 68.8153L45.1449 68.687C43.998 67.2932 42.8834 65.8833 41.8181 64.4417C42.7225 63.304 44.0149 61.7819 44.725 60.9488L44.6599 60.8683ZM53.4788 60.8683C53.0266 60.8847 52.9619 60.8847 52.4289 60.9003L52.3808 60.9801C52.4612 62.2461 52.477 63.8965 52.4612 65.2106C52.477 66.0757 52.477 66.7163 52.2188 67.197C51.7989 68.0144 50.8944 68.03 50.6196 68.0464C49.8279 68.03 49.3923 67.7253 49.1979 67.486C48.8103 67.021 48.778 66.3483 48.778 65.2262C48.778 64.137 48.778 62.1022 48.8269 60.9488L48.7622 60.8683C48.213 60.8847 48.1322 60.8847 47.5026 60.9003L47.4213 60.9801C47.4702 62.4389 47.4702 62.6149 47.4537 64.2489V65.4022C47.4702 66.7003 47.4702 67.373 48.0679 68.0785C48.3751 68.3988 49.0855 68.9757 50.5392 68.9757C51.4594 68.9757 52.3319 68.7351 52.8654 68.1583C53.5277 67.4371 53.5277 66.4758 53.5277 65.8031L53.5112 64.7937V63.1112C53.5112 62.2305 53.5277 61.9579 53.5435 60.9484L53.4788 60.8683ZM59.2615 64.0885C58.5834 63.7847 58.5345 63.7682 58.3894 63.672C58.1635 63.5281 57.8244 63.2876 57.8079 62.7913C57.8244 62.1342 58.4056 61.6857 59.3423 61.7013C60.1987 61.6857 60.7156 61.9583 61.2005 62.214L61.2967 62.1663C61.329 61.7654 61.3456 61.6059 61.3779 61.1725L61.329 61.0928C60.7313 60.9003 60.1987 60.7239 59.2943 60.7239C58.3898 60.7239 57.4369 60.9801 56.92 61.7177C56.6933 62.0545 56.5805 62.471 56.5648 62.8875C56.5805 64.2649 57.647 64.7456 58.4545 65.1144L59.0037 65.3549C59.7465 65.6432 60.4088 65.9478 60.4088 66.7332C60.4088 67.4058 59.9243 67.9983 58.745 67.9983C57.7117 67.9983 57.0497 67.5177 56.7583 67.3413L56.6456 67.3734C56.6133 67.8063 56.6133 68.0148 56.5652 68.4148L56.5975 68.4954C56.8715 68.6229 57.6474 68.9761 58.8424 68.9761C60.8126 68.9761 61.7493 67.854 61.7493 66.5888C61.7493 65.1621 60.6513 64.6822 59.8273 64.3291L59.2615 64.0885ZM46.2433 27.8946L21.9341 25.7639L20.2061 45.4392H46.2433V27.8946Z" fill="#F8F9FC"/>
</g>
</svg>
