<svg width="160" height="52" viewBox="0 0 160 52" fill="none" xmlns="http://www.w3.org/2000/svg">
<g id="Logo">
<path id="Vector" d="M68.4701 27.365C68.4701 34.8463 62.5422 40.3591 55.2673 40.3591C47.9924 40.3591 42.0645 34.8463 42.0645 27.365C42.0645 19.831 47.9924 14.3708 55.2673 14.3708C62.5422 14.3708 68.4701 19.831 68.4701 27.365ZM62.6905 27.365C62.6905 22.6899 59.2548 19.4912 55.2673 19.4912C51.2797 19.4912 47.844 22.6899 47.844 27.365C47.844 31.9932 51.2797 35.2388 55.2673 35.2388C59.2548 35.2388 62.6905 31.9873 62.6905 27.365Z" fill="#1A1A1A"/>
<path id="Vector_2" d="M96.953 27.365C96.953 34.8463 91.0251 40.3591 83.7502 40.3591C76.4753 40.3591 70.5474 34.8463 70.5474 27.365C70.5474 19.8368 76.4753 14.3708 83.7502 14.3708C91.0251 14.3708 96.953 19.831 96.953 27.365ZM91.1734 27.365C91.1734 22.6899 87.7377 19.4912 83.7502 19.4912C79.7626 19.4912 76.3269 22.6899 76.3269 27.365C76.3269 31.9932 79.7626 35.2388 83.7502 35.2388C87.7377 35.2388 91.1734 31.9873 91.1734 27.365Z" fill="#1A1A1A"/>
<path id="Vector_3" d="M124.249 15.1559V38.4844C124.249 48.0806 118.517 52 111.741 52C105.362 52 101.523 47.7877 100.075 44.3429L105.107 42.2748C106.003 44.3898 108.198 46.8855 111.735 46.8855C116.072 46.8855 118.76 44.2433 118.76 39.2694V37.4006H118.559C117.265 38.9765 114.773 40.3533 111.628 40.3533C105.047 40.3533 99.0186 34.694 99.0186 27.4119C99.0186 20.077 105.047 14.3708 111.628 14.3708C114.767 14.3708 117.259 15.7476 118.559 17.2767H118.76V15.1617H124.249V15.1559ZM119.17 27.4119C119.17 22.8364 116.078 19.4912 112.144 19.4912C108.157 19.4912 104.816 22.8364 104.816 27.4119C104.816 31.9405 108.157 35.2388 112.144 35.2388C116.078 35.2388 119.17 31.9405 119.17 27.4119Z" fill="#1A1A1A"/>
<path id="Vector_4" d="M133.298 1.48218V39.5624H127.661V1.48218H133.298Z" fill="#1A1A1A"/>
<path id="Vector_5" d="M155.265 31.6417L159.751 34.5944C158.303 36.7093 154.814 40.3533 148.785 40.3533C141.308 40.3533 135.725 34.6471 135.725 27.3591C135.725 19.6318 141.356 14.365 148.138 14.365C154.968 14.365 158.309 19.7314 159.401 22.6313L160 24.1077L142.406 31.3019C143.753 33.9089 145.848 35.2388 148.785 35.2388C151.728 35.2388 153.769 33.8093 155.265 31.6417ZM141.457 26.9666L153.218 22.1451C152.571 20.5223 150.624 19.3916 148.334 19.3916C145.397 19.3916 141.308 21.9517 141.457 26.9666Z" fill="#1A1A1A"/>
<path id="Vector_6" d="M20.7269 23.9847V18.4718H39.5431C39.7271 19.4326 39.822 20.5692 39.822 21.7995C39.822 25.9355 38.6768 31.05 34.986 34.694C31.396 38.3848 26.8091 40.3533 20.7329 40.3533C9.47042 40.3533 0 31.2961 0 20.1766C0 9.05723 9.47042 0 20.7329 0C26.9634 0 31.4019 2.4137 34.7367 5.55971L30.7967 9.44975C28.4053 7.23524 25.1654 5.51284 20.7269 5.51284C12.5026 5.51284 6.07032 12.0568 6.07032 20.1766C6.07032 28.2965 12.5026 34.8405 20.7269 34.8405C26.0615 34.8405 29.0996 32.7255 31.0459 30.804C32.6243 29.2456 33.6627 27.0194 34.0721 23.9788L20.7269 23.9847Z" fill="#1A1A1A"/>
</g>
</svg>
