<svg width="24" height="24" viewBox="0 0 24 24" fill="none" xmlns="http://www.w3.org/2000/svg">
<g id="Icon">
<path id="Vector" d="M23.042 5.08462C22.9198 5.01673 22.7704 5.02186 22.6532 5.09775L17.2272 8.56298C17.1171 8.6345 17.0514 8.75747 17.0533 8.88844V13.8364C17.0524 13.9561 17.1073 14.0695 17.2017 14.1429L22.6315 18.3106C22.6988 18.3625 22.7813 18.3904 22.8661 18.3904C22.9224 18.3904 22.9778 18.3769 23.0276 18.3506C23.1572 18.2844 23.2373 18.1498 23.2335 18.0042V5.42336C23.2373 5.28379 23.1635 5.15358 23.042 5.08462Z" fill="#F3F3F3"/>
<path id="Vector_2" d="M4.40337 8.02004C4.40337 8.3535 4.13313 8.62359 3.79983 8.62359C3.46652 8.62359 3.19629 8.3535 3.19629 8.02004C3.19629 7.68689 3.46652 7.4165 3.79983 7.4165C4.13313 7.4165 4.40337 7.68689 4.40337 8.02004Z" fill="#F3F3F3"/>
<path id="Subtract" fill-rule="evenodd" clip-rule="evenodd" d="M14.9773 18.2319H2.08582C1.33909 18.2319 0.733887 17.6267 0.733887 16.88V6.45081C0.733887 5.70438 1.33909 5.09888 2.08582 5.09888H14.9773C15.724 5.09888 16.3292 5.70438 16.3292 6.45081V16.88C16.3292 17.6267 15.724 18.2319 14.9773 18.2319ZM7.66821 9.31059C8.06948 9.11146 8.52167 8.99951 9 8.99951C9.60836 8.99951 10.1744 9.18059 10.6472 9.4918C10.7252 9.5431 10.8006 9.59793 10.8732 9.65607C11.1275 9.85956 11.3479 10.1036 11.5246 10.3783C11.6638 10.5945 11.7758 10.8297 11.8562 11.0791C11.9113 11.2504 11.9515 11.4284 11.9752 11.6116C11.9915 11.7386 12 11.8681 12 11.9995C12 13.6564 10.6569 14.9995 9 14.9995C8.30862 14.9995 7.67186 14.7656 7.16453 14.3727C6.8571 14.1346 6.5972 13.838 6.40146 13.4997C6.14613 13.0584 6 12.546 6 11.9995C6 10.821 6.67956 9.8012 7.66821 9.31059ZM5.17595 8.02001C5.17595 7.26016 4.55973 6.64394 3.79987 6.64394C3.04017 6.645 2.42471 7.26061 2.4238 8.02001C2.4238 8.78017 3.04002 9.39609 3.79987 9.39609C4.55973 9.39609 5.17595 8.78017 5.17595 8.02001Z" fill="#F3F3F3"/>
</g>
</svg>
