<svg width="160" height="75" viewBox="0 0 160 75" fill="none" xmlns="http://www.w3.org/2000/svg">
<g id="Logo">
<path id="Vector" fill-rule="evenodd" clip-rule="evenodd" d="M74.4933 10.8905C73.0628 11.6679 71.8156 12.7375 70.8346 14.0284C69.8536 15.3192 69.1611 16.8018 68.8032 18.3778L73.9511 30.3482C75.7455 31.4454 77.813 32.0267 79.9222 32.0269C80.0214 32.0269 80.1272 32.0236 80.2231 32.0236C81.1257 32.0106 82.025 31.8829 82.8978 31.6473L74.4966 10.8938L74.4933 10.8905ZM117.554 0H116.37C101.796 1.08316 88.3598 8.29879 79.4891 19.7947C80.5074 21.9545 83.9625 30.5936 84.217 31.1892C92.1091 14.2545 103.84 3.97923 117.551 0H117.554Z" fill="#1A1A1A"/>
<g id="Group">
<path id="Vector_2" fill-rule="evenodd" clip-rule="evenodd" d="M79.9488 1.02109C84.8453 1.02109 89.3319 2.75874 92.8167 5.64499C92.096 6.07694 91.3818 6.52526 90.6809 6.98994C87.7119 4.70908 83.989 3.34777 79.9488 3.34777C70.2383 3.34777 62.3627 11.1917 62.3627 20.8682C62.3627 30.5446 70.235 38.3918 79.9488 38.3918C89.6593 38.3918 97.5348 30.5479 97.5348 20.8682C97.5348 18.9342 97.2207 17.0755 96.6388 15.3378C97.2504 14.6637 97.8786 14.006 98.52 13.3678C99.4756 15.6814 100.001 18.2143 100.001 20.8682C100.001 31.8307 91.0214 40.7185 79.9455 40.7185C68.8695 40.7185 59.8896 31.8307 59.8896 20.8682C59.8896 9.90564 68.8695 1.01782 79.9455 1.01782L79.9488 1.02109Z" fill="#1A1A1A"/>
<path id="Vector_3" fill-rule="evenodd" clip-rule="evenodd" d="M79.9488 5.17368C83.3576 5.17368 86.5117 6.25357 89.0906 8.08611C88.4724 8.53116 87.8607 8.98602 87.2623 9.45725C85.0821 8.06634 82.5426 7.32776 79.9488 7.33019C72.4436 7.33019 66.3633 13.3907 66.3633 20.8681C66.3633 28.3455 72.4469 34.406 79.9488 34.406C87.454 34.406 93.5342 28.3455 93.5342 20.8681C93.5342 20.302 93.4979 19.7457 93.4317 19.1992C94.007 18.44 94.6022 17.6971 95.2105 16.9707C95.5312 18.2174 95.6998 19.5231 95.6998 20.8648C95.6998 29.5334 88.6476 36.5592 79.9488 36.5592C71.25 36.5592 64.1977 29.5334 64.1977 20.8648C64.1977 12.1962 71.25 5.17041 79.9488 5.17041V5.17368ZM3.79229 64.4924C3.79229 64.7443 3.84188 65.0356 3.93776 65.3726C4.03364 65.7064 4.2221 66.0271 4.50644 66.3282C4.78747 66.6292 5.19084 66.8845 5.71984 67.0939C6.24884 67.3034 6.94316 67.4081 7.80279 67.4081C8.27889 67.4081 8.74838 67.3753 9.21456 67.3066C9.68074 67.2379 10.1006 67.1234 10.4809 66.9532C10.8578 66.7863 11.1653 66.5507 11.4033 66.2496C11.6414 65.9486 11.7604 65.5559 11.7604 65.0683C11.7604 64.7149 11.6777 64.4236 11.5091 64.188C11.3405 63.9524 11.1057 63.7561 10.7983 63.5957C10.4908 63.4354 10.1271 63.2979 9.70389 63.1801C9.28069 63.0623 8.82442 62.9445 8.33179 62.83L6.30174 62.3784C5.52807 62.2115 4.78086 62.0283 4.06009 61.8254C3.33933 61.6257 2.70122 61.3345 2.14907 60.9582C1.59693 60.5819 1.14727 60.0877 0.803422 59.4758C0.459571 58.8638 0.287645 58.0654 0.287645 57.0771C0.287645 56.7433 0.32732 56.3736 0.406671 55.9711C0.486021 55.5685 0.621578 55.1628 0.816647 54.7537C1.01172 54.3414 1.27952 53.9422 1.62007 53.5462C1.96392 53.1535 2.40696 52.8099 2.95249 52.5154C3.49803 52.2209 4.14936 51.982 4.90319 51.7987C5.66033 51.6155 6.5464 51.5206 7.56804 51.5206C9.00957 51.5206 10.2064 51.7235 11.1553 52.1227C12.1042 52.5252 12.8614 53.0194 13.4234 53.6051C13.9855 54.1909 14.3823 54.8257 14.6104 55.5031C14.8385 56.1805 14.9542 56.799 14.9542 57.352H11.1586C11.1223 57.1491 11.0661 56.8939 10.9867 56.5863C10.9074 56.2754 10.7354 55.9776 10.4709 55.6929C10.2064 55.4082 9.82622 55.1595 9.32367 54.9501C8.82111 54.7406 8.14002 54.6359 7.2804 54.6359C6.91009 54.6359 6.52987 54.6752 6.13312 54.7505C5.73637 54.8257 5.3826 54.9468 5.0652 55.1137C4.7478 55.2806 4.48991 55.5031 4.28823 55.7813C4.08654 56.0561 3.98405 56.3965 3.98405 56.799C3.98405 57.1524 4.05017 57.4404 4.18243 57.6662C4.31468 57.8919 4.47999 58.0719 4.68498 58.2061C4.88666 58.3403 5.10818 58.4417 5.34292 58.5072C5.58098 58.5759 5.79588 58.6315 5.98765 58.6839L10.6032 59.7638C11.2545 59.9143 11.8761 60.0975 12.4745 60.3168C13.073 60.5328 13.5987 60.8273 14.0582 61.1971C14.5145 61.5668 14.8782 62.025 15.1526 62.578C15.4237 63.1311 15.5626 63.8084 15.5626 64.6134C15.5626 65.5199 15.4171 66.2922 15.1262 66.9368C14.8352 67.5815 14.4583 68.1215 13.9921 68.5567C13.5259 68.9919 13.0135 69.3388 12.4481 69.6006C11.886 69.8591 11.3273 70.0587 10.7751 70.1929C10.223 70.327 9.70719 70.4154 9.23109 70.4579C8.75499 70.5005 8.37808 70.5201 8.09704 70.5201C6.37448 70.5201 4.98254 70.3107 3.91792 69.8918C2.85331 69.473 2.03335 68.9592 1.45145 68.3472C0.869548 67.7353 0.486021 67.0776 0.290951 66.374C0.0958817 65.6704 0 65.0421 0 64.4891H3.7989L3.79229 64.4924ZM90.5222 70.0456H86.8291V54.9632H86.7762L83.2418 70.0456H79.3636L75.9085 54.9632H75.8556V70.0456H72.1625V51.9984H77.9386L81.3672 66.2235H81.4201L84.7958 51.9984H90.5189V70.0456H90.5222ZM69.0348 63.7364C69.0348 64.9211 68.853 65.9486 68.4926 66.8027C68.1322 67.6568 67.6131 68.3636 66.9386 68.9134C66.2642 69.4664 65.4442 69.8755 64.4854 70.134C63.5266 70.3925 62.452 70.5234 61.2552 70.5234C60.8154 70.5234 60.336 70.4939 59.8169 70.435C59.2979 70.3761 58.7689 70.2616 58.2332 70.0947C57.6976 69.9278 57.1686 69.7053 56.6528 69.4271C56.1338 69.1523 55.661 68.7858 55.2411 68.3342C54.7318 67.7845 54.3573 67.1261 54.1467 66.41C53.9285 65.6835 53.7632 64.8654 53.7632 63.959V51.9951H57.7968V63.707C57.7968 64.3418 57.8861 64.8883 58.0613 65.3399C58.2365 65.7915 58.4812 66.1678 58.7854 66.4591C59.0929 66.7503 59.4533 66.9728 59.8665 67.1136C60.2798 67.2543 60.7162 67.3263 61.1725 67.3263C62.5446 67.3263 63.5233 67.0285 64.1118 66.4329C64.7003 65.8373 64.9946 64.9865 64.9946 63.8804V51.9918H69.0282V63.7299L69.0348 63.7364ZM44.4362 59.9405C45.4744 59.9405 46.2414 59.7572 46.744 59.3874C47.2465 59.0177 47.4945 58.3828 47.4945 57.4764C47.4945 57.2407 47.4581 56.9855 47.3887 56.7106C47.3193 56.4357 47.1804 56.1772 46.9787 55.9449C46.777 55.7125 46.496 55.5129 46.1356 55.3526C45.7752 55.1922 45.3024 55.1137 44.7238 55.1137H39.7942V59.9405H44.4362ZM35.9193 51.9984H45.4909C46.7572 51.9984 47.7755 52.1914 48.5492 52.5776C49.3229 52.9637 49.9246 53.4284 50.3544 53.9716C50.7842 54.5148 51.0752 55.0777 51.224 55.6569C51.3727 56.2328 51.4488 56.7172 51.4488 57.1033C51.4488 58.1079 51.1975 59.0013 50.6983 59.7801C50.199 60.5589 49.4716 61.0989 48.5227 61.4C48.9096 61.5668 49.2534 61.7403 49.551 61.917C49.8486 62.0937 50.0998 62.3457 50.3015 62.6696C50.5032 62.9936 50.6586 63.419 50.7644 63.9393C50.8702 64.4596 50.9231 65.137 50.9231 65.9748C50.9231 66.6292 50.9297 67.1725 50.9363 67.6077C50.9429 68.0429 50.976 68.3931 51.0289 68.6516C51.0818 68.9101 51.1644 69.113 51.2802 69.2537C51.3926 69.3944 51.5579 69.4991 51.7695 69.5678V70.0456H47.392C47.2498 69.6104 47.144 69.1261 47.0746 68.5992C47.0052 68.0724 46.9688 67.3394 46.9688 66.4002C46.9688 65.7817 46.9457 65.2548 46.9027 64.8294C46.8597 64.404 46.7341 64.0506 46.5324 63.7724C46.3307 63.4976 46.0232 63.2947 45.6099 63.1703C45.1966 63.046 44.618 62.9805 43.8841 62.9805H39.7975V70.0423H35.9193V51.9951V51.9984ZM29.9349 57.905C29.8457 57.6367 29.7365 57.3226 29.6043 56.9626C29.472 56.6026 29.2538 56.2623 28.9464 55.9449C28.6389 55.6275 28.2289 55.3526 27.7197 55.1268C27.2106 54.901 26.5493 54.7864 25.7426 54.7864C25.2665 54.7864 24.7573 54.8748 24.2118 55.0515C23.6662 55.2282 23.1571 55.5489 22.6843 56.0201C22.2082 56.4881 21.818 57.136 21.5106 57.9541C21.2031 58.7755 21.0477 59.8227 21.0477 61.0956C21.0477 61.9006 21.137 62.6762 21.3122 63.4223C21.4874 64.1684 21.7651 64.8261 22.1421 65.3955C22.519 65.9649 23.005 66.4165 23.5935 66.7536C24.182 67.0874 24.8995 67.2575 25.7426 67.2575C26.8502 67.2575 27.766 66.9696 28.4835 66.3904C29.2042 65.8111 29.687 64.9701 29.9349 63.8641H33.8892C33.6941 64.8523 33.3801 65.7522 32.9403 66.5671C32.5006 67.3786 31.9385 68.0789 31.2541 68.6647C30.5697 69.2504 29.7597 69.7086 28.8273 70.0358C27.895 70.363 26.8403 70.5267 25.6632 70.5267C24.3969 70.5267 23.2364 70.3238 22.1817 69.9245C21.127 69.522 20.2178 68.9232 19.4541 68.128C18.6903 67.3328 18.0919 66.3413 17.6621 65.1632C17.2323 63.9819 17.0173 62.6107 17.0173 61.0531C17.0173 59.4791 17.2422 58.0948 17.6885 56.907C18.1382 55.7158 18.7531 54.7243 19.5334 53.9291C20.3137 53.1339 21.2394 52.535 22.3008 52.1325C23.3654 51.73 24.5027 51.5304 25.7161 51.5304C27.1411 51.5304 28.3545 51.7398 29.3563 52.1587C30.3581 52.5776 31.188 53.1012 31.8493 53.7295C32.5072 54.3578 32.9998 55.045 33.3272 55.7911C33.6512 56.5372 33.8429 57.244 33.8958 57.9149H29.9415L29.9349 57.905Z" fill="#1A1A1A"/>
</g>
<path id="Vector_4" fill-rule="evenodd" clip-rule="evenodd" d="M109.391 51.9558H112.938V55.4671H109.391V51.9558ZM102.497 60.6833C102.464 60.4706 102.408 60.2611 102.332 60.0583C102.256 59.8554 102.134 59.6688 101.965 59.5052C101.796 59.3416 101.565 59.2107 101.267 59.1125C100.973 59.0144 100.586 58.9653 100.113 58.9653C99.6241 58.9653 99.234 59.0045 98.9464 59.0864C98.6587 59.1682 98.4405 59.2696 98.2884 59.394C98.1363 59.5183 98.0405 59.6525 97.9975 59.7997C97.9545 59.947 97.9346 60.0943 97.9346 60.2415C97.9346 60.5851 98.1429 60.8469 98.5562 61.0269C98.9695 61.2069 99.4886 61.3607 100.113 61.4916C100.738 61.6225 101.419 61.7566 102.153 61.8973C102.887 62.0348 103.569 62.2475 104.193 62.5355C104.818 62.8202 105.337 63.2063 105.751 63.6873C106.164 64.1684 106.372 64.8098 106.372 65.6115C106.372 66.5605 106.167 67.3262 105.751 67.9153C105.337 68.5043 104.825 68.9559 104.217 69.2766C103.608 69.594 102.963 69.8133 102.279 69.9245C101.595 70.0391 100.99 70.0947 100.467 70.0947C99.7068 70.0947 98.9431 70.0227 98.1727 69.8754C97.4056 69.7282 96.7146 69.4828 96.1063 69.1392C95.4979 68.7955 94.9954 68.3341 94.5986 67.7549C94.2019 67.1757 93.9936 66.4525 93.9771 65.5853H97.6272C97.6272 66.1416 97.8388 66.5998 98.262 66.9597C98.6852 67.3197 99.4522 67.4997 100.566 67.4997C101.023 67.4997 101.4 67.4506 101.694 67.3524C101.988 67.2543 102.216 67.1397 102.378 67.0088C102.54 66.8779 102.653 66.7339 102.719 66.5801C102.785 66.4231 102.821 66.2823 102.821 66.1515C102.821 65.7915 102.613 65.5166 102.2 65.3301C101.786 65.1403 101.271 64.9832 100.652 64.8523C100.034 64.7214 99.3629 64.5873 98.6389 64.4465C97.9115 64.3058 97.2403 64.0997 96.6254 63.8215C96.0071 63.5434 95.4946 63.1638 95.0813 62.6827C94.6681 62.2017 94.4598 61.5505 94.4598 60.7324C94.4598 60.2579 94.5457 59.7637 94.7143 59.25C94.883 58.7362 95.1805 58.265 95.6004 57.8396C96.0236 57.4142 96.5857 57.064 97.2866 56.7859C97.9875 56.5077 98.8604 56.3703 99.9085 56.3703C100.566 56.3703 101.238 56.4226 101.922 56.5306C102.606 56.6353 103.235 56.8448 103.81 57.1556C104.385 57.4665 104.871 57.9017 105.268 58.4679C105.665 59.0307 105.896 59.7703 105.966 60.6866H102.494L102.497 60.6833ZM155.361 69.5318C154.938 70.7426 154.574 71.7047 154.27 72.4246C153.966 73.1446 153.639 73.6943 153.282 74.0805C152.928 74.4633 152.508 74.712 152.028 74.8266C151.546 74.9411 150.918 75 150.141 75C149.906 75 149.641 74.9967 149.354 74.9869C149.066 74.9771 148.795 74.9673 148.544 74.9509V72.2054C148.63 72.2217 148.725 72.2348 148.835 72.2414C148.944 72.2512 149.076 72.2545 149.228 72.2545C149.549 72.2545 149.836 72.2381 150.091 72.2054C150.346 72.1727 150.564 72.0876 150.749 71.9469C150.934 71.8094 151.096 71.6065 151.232 71.3447C151.367 71.083 151.476 70.7328 151.562 70.291L146.596 56.7106H150.551L153.44 66.3216H153.49L156.251 56.7106H160L155.361 69.5318ZM135.748 63.3307C135.748 63.7233 135.795 64.1487 135.887 64.6069C135.98 65.065 136.135 65.4904 136.357 65.8831C136.575 66.2758 136.873 66.6063 137.243 66.8747C137.613 67.143 138.086 67.2804 138.661 67.2804C139.22 67.2804 139.696 67.1724 140.093 66.963C140.49 66.7503 140.814 66.4722 141.068 66.1285C141.323 65.7849 141.508 65.389 141.627 64.9407C141.746 64.4924 141.805 64.0211 141.805 63.5303C141.805 63.0067 141.759 62.4962 141.667 61.9988C141.574 61.5014 141.412 61.0531 141.184 60.6637C140.956 60.271 140.648 59.9535 140.258 59.7081C139.868 59.4627 139.372 59.3416 138.764 59.3416C138.205 59.3416 137.732 59.4529 137.345 59.6721C136.962 59.8877 136.639 60.1948 136.406 60.5655C136.172 60.9418 136 61.3705 135.9 61.8515C135.798 62.3326 135.748 62.8267 135.748 63.3339V63.3307ZM145.201 69.7544H141.729V68.1116H141.68C141.24 68.8479 140.665 69.3617 139.957 69.6562C139.246 69.9507 138.522 70.098 137.778 70.098C136.78 70.098 135.924 69.9016 135.206 69.5089C134.489 69.1162 133.9 68.5927 133.444 67.9415C132.988 67.287 132.65 66.5409 132.429 65.6999C132.211 64.8589 132.098 63.9884 132.098 63.0885C132.098 61.9595 132.25 60.9745 132.555 60.1335C132.859 59.2925 133.269 58.5922 133.784 58.0359C134.3 57.4796 134.895 57.064 135.57 56.7859C136.244 56.5077 136.955 56.3703 137.699 56.3703C138.274 56.3703 138.77 56.4357 139.194 56.5666C139.617 56.6975 139.984 56.8644 140.295 57.0706C140.605 57.2734 140.87 57.496 141.081 57.7316C141.293 57.9672 141.465 58.193 141.6 58.4057H141.65V52.1554H145.198V69.7576L145.201 69.7544ZM129.566 69.7544H126.17V67.9153H126.121C125.714 68.6188 125.165 69.1588 124.474 69.5318C123.783 69.9082 122.963 70.0947 122.014 70.0947C121.356 70.0947 120.741 69.9998 120.176 69.8133C119.611 69.6235 119.124 69.3355 118.718 68.9428C118.311 68.5501 117.997 68.0527 117.769 67.4473C117.541 66.8419 117.428 66.122 117.428 65.2908V56.7106H120.976V64.8C120.976 65.3072 121.042 65.7162 121.178 66.0271C121.313 66.338 121.488 66.5801 121.71 66.7503C121.928 66.9237 122.179 67.0415 122.457 67.107C122.735 67.1724 123.009 67.2052 123.28 67.2052C123.568 67.2052 123.872 67.1594 124.193 67.071C124.514 66.9826 124.811 66.8223 125.079 66.5932C125.35 66.3642 125.572 66.0631 125.75 65.6868C125.929 65.3104 126.015 64.8294 126.015 64.2404V56.7139H129.562V69.7544H129.566ZM112.942 56.7139H115.147V59.1649H112.942V66.2496C112.942 66.446 112.952 66.6096 112.968 66.7405C112.985 66.8714 113.041 66.9761 113.134 67.0579C113.226 67.1397 113.375 67.2019 113.577 67.2412C113.778 67.2804 114.059 67.3033 114.413 67.3033C114.532 67.3033 114.648 67.3001 114.767 67.2902C114.886 67.2804 115.012 67.2706 115.147 67.2543V69.8525C114.859 69.8689 114.582 69.882 114.311 69.8885C114.039 69.8983 113.762 69.9016 113.474 69.9016H113.018C112.257 69.9016 111.642 69.8329 111.166 69.6922C110.694 69.5547 110.327 69.3617 110.065 69.1162C109.804 68.8708 109.626 68.5763 109.533 68.2327C109.44 67.8891 109.394 67.5062 109.394 67.0808V59.1616H107.569V56.7106H112.942V56.7139Z" fill="#1A1A1A"/>
</g>
</svg>
