<svg width="24" height="12" viewBox="0 0 24 12" fill="none" xmlns="http://www.w3.org/2000/svg">
<path id="Union" fill-rule="evenodd" clip-rule="evenodd" d="M9.20146 3.66662C9.76026 1.20048 10.6718 1.53049e-06 11.9869 1.41552e-06C12.0096 -1.19563e-05 12.0323 0.000341659 12.0552 0.00106326C14.8778 0.0887849 15.2707 3.11173 15.4185 4.24974C15.4323 4.3557 15.4442 4.44722 15.4554 4.51466C16.0197 7.91623 16.6829 9.19013 17.9022 9.21487L17.9215 9.21473C19.654 9.19465 20.2205 6.65036 20.7683 4.18987L20.7761 4.15507C20.8126 3.99046 20.849 3.82764 20.8856 3.66662C21.4763 1.05934 22.5243 -0.244361 23.7613 0.0908067C23.8011 0.101477 23.8387 0.121605 23.8718 0.149982C23.9049 0.178359 23.9329 0.214403 23.954 0.255957C23.9966 0.3383 24.0103 0.437236 23.9922 0.531492C23.9747 0.625878 23.9264 0.708109 23.858 0.760094C23.7896 0.812079 23.7066 0.82956 23.6273 0.808693C22.3502 0.462783 21.6571 3.05703 21.4751 3.86032C21.439 4.02056 21.4027 4.18227 21.3664 4.34544L21.3586 4.38058L21.3585 4.38063C21.3359 4.48235 21.3131 4.5846 21.2902 4.68718C21.8856 2.92312 22.7531 2.07979 23.7427 2.34778C23.7996 2.36328 23.8491 2.40502 23.8802 2.46387C23.9113 2.52271 23.9216 2.59384 23.9088 2.66168C23.8959 2.72952 23.861 2.78853 23.8117 2.82578C23.7624 2.86303 23.7027 2.87547 23.6457 2.86038C22.295 2.49483 21.5795 5.16074 21.3923 5.98649C21.3536 6.15838 21.3148 6.3319 21.2758 6.50704C20.7051 9.07006 20.0583 11.9749 17.9264 11.9997L17.8989 11.9998C15.9952 11.9998 15.429 9.68678 14.83 7.23886L14.8299 7.23858L14.8299 7.23854C14.6442 6.47962 14.4522 5.6948 14.216 4.96153C13.8079 3.69428 13.228 3.16652 12.6619 2.94121C10.6404 2.72459 9.89383 5.16744 9.70824 5.98648C9.66954 6.15838 9.63067 6.3319 9.59166 6.50704C9.021 9.07006 8.3742 11.9749 6.24235 11.9997L6.21485 11.9998C4.31113 11.9998 3.74493 9.68678 3.14591 7.23886L3.1458 7.23843C2.9601 6.47954 2.76807 5.69476 2.53191 4.96153C1.95307 3.16428 1.02885 2.85441 0.288319 2.78525C0.231646 2.77971 0.178959 2.74833 0.141237 2.69765C0.103518 2.64698 0.0836756 2.58091 0.0858519 2.51324C0.0880282 2.44557 0.112049 2.3815 0.152914 2.33441C0.193779 2.28732 0.248331 2.26083 0.305193 2.26046C0.310946 2.26047 0.316733 2.26072 0.322556 2.26123C1.124 2.3361 2.26752 2.67792 2.94217 4.77266C3.01483 4.99829 3.08319 5.22765 3.14835 5.45893C3.12006 5.34413 3.09184 5.2288 3.06355 5.11318L3.06342 5.11267C2.87834 4.35638 2.68697 3.57439 2.45231 2.84582C1.89092 1.1028 0.997545 0.802565 0.2819 0.73575C0.241268 0.732038 0.201689 0.718582 0.165537 0.696186C0.129383 0.67379 0.0974045 0.642918 0.0715237 0.605427C0.0341568 0.551896 0.0102787 0.48686 0.00264744 0.41784C-0.00498196 0.348821 0.00394824 0.278639 0.0284081 0.215412C0.0528679 0.152185 0.0918598 0.0984965 0.140867 0.0605582C0.189877 0.0226199 0.246901 0.00198186 0.305347 0.00102986C0.313074 0.00102986 0.320944 0.0014031 0.329208 0.0021247C1.15364 0.0791381 2.32973 0.430114 3.02205 2.57977C3.26625 3.33796 3.46139 4.1355 3.65031 4.90768L3.65033 4.90775C4.2159 7.2189 4.70434 9.21487 6.21677 9.21487L6.23743 9.21473C7.96995 9.19465 8.53641 6.65049 9.08423 4.19005L9.08427 4.18987L9.08834 4.17149C9.12605 4.00134 9.16375 3.83304 9.20146 3.66662ZM3.46852 6.68667C3.98647 8.50828 4.67309 9.95065 6.21499 9.95065L6.24206 9.95051C7.76115 9.93287 8.54362 8.52031 9.0731 6.79142C8.54244 9.15105 7.93491 11.4545 6.23809 11.4741L6.21662 11.4743C4.64035 11.4743 4.14326 9.44285 3.568 7.09196L3.56784 7.0913C3.535 6.9571 3.50197 6.82211 3.46852 6.68667ZM9.61647 4.64076C9.63593 4.55371 9.65526 4.46692 9.6745 4.38051L9.67452 4.38041L9.68231 4.34544C9.71864 4.18227 9.75488 4.02056 9.79101 3.86032C9.99888 2.94285 10.6448 0.8168 12.1557 0.893888C14.1128 0.993176 14.4831 3.438 14.661 4.61293C14.6936 4.82766 14.7192 4.99722 14.748 5.11475C14.7761 5.22951 14.8041 5.34397 14.8321 5.45792C14.7671 5.22698 14.6988 4.99796 14.6263 4.77267C13.9705 2.73655 12.8717 2.35661 12.0747 2.26818C12.0664 2.26399 12.0591 2.26136 12.0528 2.26046C11.0051 2.11033 10.1926 2.91963 9.61647 4.64076ZM15.1529 6.6879C15.6707 8.50853 16.3573 9.95065 17.8991 9.95065L17.9261 9.95051C19.4453 9.93287 20.2278 8.52015 20.7573 6.79114C20.2266 9.15087 19.6191 11.4545 17.9222 11.4741L17.9007 11.4743C16.3244 11.4743 15.8273 9.44286 15.2521 7.09198L15.2519 7.0913C15.2192 6.95751 15.1863 6.82292 15.1529 6.6879ZM6.2389 9.42494L6.21677 9.42508C4.57675 9.42508 4.07132 7.35966 3.48587 4.96722L3.48562 4.9662C3.29798 4.1994 3.10396 3.40654 2.86257 2.65696C2.20556 0.617026 1.09464 0.284426 0.316566 0.211756C0.281229 0.208183 0.246147 0.221462 0.219025 0.248675C0.191902 0.275888 0.174959 0.314811 0.171913 0.356893C0.169231 0.397442 0.179989 0.437626 0.201885 0.46884C0.213352 0.485376 0.227509 0.498979 0.243504 0.508828C0.259499 0.518677 0.277004 0.524571 0.294962 0.526154C1.0604 0.597626 2.01548 0.917081 2.61178 2.76864C2.84917 3.50561 3.04166 4.29213 3.22815 5.05433L3.22818 5.05443C3.81789 7.46429 4.37488 9.74044 6.21499 9.74044L6.2417 9.7403C8.3087 9.71628 8.94643 6.85209 9.50907 4.32504L9.51689 4.29005C9.55315 4.1263 9.58945 3.96429 9.62579 3.80403C9.84066 2.85575 10.505 0.681446 12.075 0.681623C12.1039 0.681623 12.1333 0.682373 12.1628 0.683877C14.2564 0.790078 14.6435 3.34602 14.8296 4.57447L14.8296 4.57457C14.8612 4.78304 14.8862 4.94771 14.9122 5.05433L14.9123 5.05445C15.502 7.4643 16.059 9.74044 17.8991 9.74044L17.9258 9.7403C19.9927 9.71628 20.6305 6.85219 21.1932 4.32504L21.201 4.29005C21.2372 4.1263 21.2735 3.96429 21.3099 3.80403C21.4896 3.01094 22.146 0.566183 23.3947 0.566456C23.4855 0.566762 23.5759 0.579155 23.6644 0.603406C23.6815 0.608154 23.6993 0.608832 23.7166 0.6054C23.734 0.601968 23.7506 0.594493 23.7656 0.583404C23.7805 0.572315 23.7935 0.55783 23.8037 0.540774C23.8139 0.523718 23.8212 0.504426 23.8252 0.484002C23.8328 0.44434 23.827 0.402728 23.809 0.368118C23.7997 0.349944 23.7874 0.334197 23.7729 0.321821C23.7583 0.309445 23.7418 0.300694 23.7244 0.296094C22.5887 -0.011565 21.6139 1.2375 21.0508 3.72291C21.0145 3.88397 20.978 4.04647 20.9415 4.21043L20.9338 4.24523C20.3692 6.78113 19.7853 9.40336 17.923 9.42494L17.8994 9.42508C16.3918 9.39446 15.7823 7.53953 15.2874 4.55654C15.2755 4.48484 15.2633 4.39146 15.2493 4.28332L15.2492 4.28279C15.1074 3.192 14.7309 0.294522 12.0508 0.211205C10.7708 0.171347 9.91853 1.28732 9.36668 3.72287C9.32916 3.88935 9.29152 4.05735 9.25376 4.22689L9.24968 4.24523L9.24967 4.24528C8.68508 6.78117 8.10127 9.40336 6.2389 9.42494Z" fill="#D93448"/>
</svg>
